<svg width="512" height="512" xmlns="http://www.w3.org/2000/svg">

 <g>
  <title>background</title>
  <rect fill="none" id="canvas_background" height="602" width="802" y="-1" x="-1"/>
 </g>
 <g>
  <title>Layer 1</title>
  <g id="svg_1">
   <path fill="#f7f7f7" id="svg_2" d="m373.65,512l-235.3,0c-12.406,0 -22.5,-10.094 -22.5,-22.5l0,-77c0,-12.406 10.094,-22.5 22.5,-22.5l45.652,0c8.859,0 12.814,-5.414 17.434,-13.063l0.504,-0.831c4.555,-7.499 12.167,-16.105 30.759,-16.105l140.951,0c2.628,0 5.153,0.453 7.5,1.285l0,-8.786c0,-4.136 -3.364,-7.5 -7.5,-7.5l-140.952,0c-18.592,0 -26.204,-8.606 -30.759,-16.104c-4.73,-7.79 -8.534,-12.896 -17.938,-12.896l-45.651,0c-4.136,0 -7.5,3.364 -7.5,7.5l0,44c0,4.143 -3.357,7.5 -7.5,7.5l-14.204,0c-60.183,0 -109.146,-48.962 -109.146,-109.145c0,-38.057 19.772,-73.172 51.973,-92.99c-2.213,-10.05 -3.333,-20.353 -3.333,-30.705c0,-28.603 8.459,-56.182 24.463,-79.755c2.326,-3.427 6.989,-4.318 10.418,-1.992c3.427,2.326 4.318,6.99 1.992,10.418c-14.31,21.077 -21.873,45.743 -21.873,71.329c0,10.992 1.409,21.918 4.189,32.474c0.879,3.338 -0.634,6.844 -3.664,8.496c-30.326,16.527 -49.165,48.225 -49.165,82.725c0,51.912 42.233,94.145 94.146,94.145l6.704,0l0,-36.5c0,-12.406 10.094,-22.5 22.5,-22.5l45.652,0c18.548,0 26.191,12.588 30.759,20.109c2.954,4.863 6.344,8.891 17.938,8.891l32.924,0c19.549,0 35.292,-9.833 42.114,-26.302c6.558,-15.832 3.231,-33.624 -8.474,-45.328l-26.763,-26.764l0,23.079c0,4.143 -3.357,7.5 -7.5,7.5s-7.5,-3.357 -7.5,-7.5l0,-41.185c0,-4.143 3.357,-7.5 7.5,-7.5l41.186,0c4.143,0 7.5,3.357 7.5,7.5s-3.357,7.5 -7.5,7.5l-23.079,0l26.764,26.763c16.01,16.01 20.611,40.219 11.724,61.676c-3.361,8.115 -8.277,15.039 -14.418,20.562l66.475,0c12.406,0 22.5,10.094 22.5,22.5l0,137c-0.002,12.405 -10.095,22.499 -22.502,22.499zm-235.3,-107c-4.136,0 -7.5,3.364 -7.5,7.5l0,77c0,4.136 3.364,7.5 7.5,7.5l235.3,0c4.136,0 7.5,-3.364 7.5,-7.5l0,-107c0,-4.136 -3.364,-7.5 -7.5,-7.5l-140.952,0c-11.594,0 -14.983,4.027 -17.938,8.892l-0.484,0.8c-4.287,7.097 -12.266,20.308 -30.274,20.308l-45.652,0zm283.75,-30l-3.449,0c-4.143,0 -7.5,-3.357 -7.5,-7.5s3.357,-7.5 7.5,-7.5l3.449,0c41.3,0 74.9,-33.601 74.9,-74.9s-33.601,-74.9 -74.9,-74.9c-4.143,0 -7.5,-3.357 -7.5,-7.5c0,-45.259 -36.82,-82.079 -82.079,-82.079c-3.049,0 -6.161,0.176 -9.251,0.521c-3.829,0.439 -7.356,-2.11 -8.167,-5.875c-12.508,-58.098 -64.785,-100.267 -124.303,-100.267c-31.578,0 -61.857,11.654 -85.258,32.814c-3.07,2.778 -7.813,2.542 -10.593,-0.532c-2.778,-3.072 -2.54,-7.814 0.532,-10.593c26.164,-23.66 60.015,-36.689 95.319,-36.689c32.695,0 64.618,11.374 89.889,32.026c23.205,18.965 39.918,44.94 47.543,73.69c1.437,-0.063 2.868,-0.096 4.289,-0.096c51.105,0 93.114,39.69 96.814,89.867c46.2,3.699 82.665,42.478 82.665,89.613c0,49.571 -40.329,89.9 -89.9,89.9zm-230.1,-167c-37.22,0 -67.5,-30.28 -67.5,-67.5s30.28,-67.5 67.5,-67.5s67.5,30.28 67.5,67.5s-30.28,67.5 -67.5,67.5zm0,-120c-28.948,0 -52.5,23.552 -52.5,52.5s23.552,52.5 52.5,52.5s52.5,-23.552 52.5,-52.5s-23.552,-52.5 -52.5,-52.5zm0,90c-4.143,0 -7.5,-3.357 -7.5,-7.5l0,-22.5l-22.5,0c-4.143,0 -7.5,-3.357 -7.5,-7.5s3.357,-7.5 7.5,-7.5l22.5,0l0,-22.5c0,-4.143 3.357,-7.5 7.5,-7.5s7.5,3.357 7.5,7.5l0,22.5l22.5,0c4.143,0 7.5,3.357 7.5,7.5s-3.357,7.5 -7.5,7.5l-22.5,0l0,22.5c0,4.143 -3.357,7.5 -7.5,7.5z"/>
  </g>
 </g>
</svg>