<svg width="512" height="512" xmlns="http://www.w3.org/2000/svg">

 <g>
  <title>background</title>
  <rect fill="none" id="canvas_background" height="602" width="802" y="-1" x="-1"/>
 </g>
 <g>
  <title>Layer 1</title>
  <g id="svg_1">
   <g id="svg_2">
    <g id="svg_3">
     <path fill="#f7f7f7" stroke="#f7f7f7" id="svg_4" d="m233.667,263.019l0,-231.019c0,-5.888 -4.779,-10.667 -10.667,-10.667c-123.52,0 -224,110.059 -224,245.333s110.059,245.334 245.333,245.334c60.523,0 93.269,-10.965 134.784,-45.099c4.459,-3.669 5.184,-10.219 1.643,-14.784l-147.093,-189.098zm10.666,227.648c-123.52,0 -224,-100.48 -224,-224c0,-119.552 85.184,-217.536 192,-223.701l0,223.701c0,2.368 0.789,4.672 2.261,6.549l142.848,183.659c-33.685,25.728 -61.781,33.792 -113.109,33.792z"/>
     <path fill="#f7f7f7" stroke="#f7f7f7" id="svg_5" d="m265.667,256l234.667,0c5.888,0 10.667,-4.779 10.667,-10.667c-0.001,-135.274 -110.06,-245.333 -245.334,-245.333c-5.888,0 -10.667,4.779 -10.667,10.667l0,234.667c0,5.887 4.779,10.666 10.667,10.666zm10.666,-234.411c115.051,5.419 207.659,98.027 213.077,213.077l-213.077,0l0,-213.077z"/>
     <path fill="#f7f7f7" stroke="#f7f7f7" id="svg_6" d="m500.333,277.333l-213.333,0c-4.096,0 -7.872,2.368 -9.643,6.08c-1.771,3.712 -1.237,8.107 1.344,11.285l138.667,171.669c1.856,2.325 4.587,3.733 7.552,3.947c0.256,0.021 0.491,0.021 0.747,0.021c2.688,0 5.291,-1.024 7.275,-2.859c49.599,-46.271 78.058,-111.679 78.058,-179.476c0,-5.888 -4.779,-10.667 -10.667,-10.667zm-73.749,166.486l-117.248,-145.152l180.075,0c-2.624,54.229 -25.067,106.09 -62.827,145.152z"/>
    </g>
   </g>
  </g>
  <g id="svg_7"/>
  <g id="svg_8"/>
  <g id="svg_9"/>
  <g id="svg_10"/>
  <g id="svg_11"/>
  <g id="svg_12"/>
  <g id="svg_13"/>
  <g id="svg_14"/>
  <g id="svg_15"/>
  <g id="svg_16"/>
  <g id="svg_17"/>
  <g id="svg_18"/>
  <g id="svg_19"/>
  <g id="svg_20"/>
  <g id="svg_21"/>
 </g>
</svg>