<svg width="480" height="480.06537" xmlns="http://www.w3.org/2000/svg">

 <g>
  <title>background</title>
  <rect fill="none" id="canvas_background" height="602" width="802" y="-1" x="-1"/>
 </g>
 <g>
  <title>Layer 1</title>
  <path fill="#f7f7f7" id="svg_1" d="m88.03125,104.06641c39.74609,0.04687 71.95313,32.2539 72,72l0,40l16,0l0,-40c-0.07031,-40.23438 -27.40234,-75.30469 -66.39844,-85.19922c19.85547,-10.00781 30.24219,-32.33594 25.09766,-53.96875c-5.14063,-21.62891 -24.46484,-36.89844 -46.69922,-36.89844c-22.23047,0 -41.55469,15.26953 -46.69922,36.89844c-5.14062,21.63281 5.2461,43.96094 25.10156,53.96875c-39,9.89453 -66.32812,44.96484 -66.40234,85.19922l0,40l16,0l0,-40c0.05078,-39.7461 32.25781,-71.95313 72,-72zm-32,-56c0,-17.67578 14.32813,-32 32,-32c17.67578,0 32,14.32422 32,32c0,17.67187 -14.32422,32 -32,32c-17.67187,0 -32,-14.32813 -32,-32zm0,0"/>
  <path fill="#f7f7f7" id="svg_2" d="m413.63281,90.86719c19.85547,-10.00781 30.24219,-32.33594 25.09766,-53.96875c-5.14063,-21.62891 -24.46484,-36.89844 -46.69922,-36.89844c-22.23047,0 -41.55469,15.26953 -46.69922,36.89844c-5.14062,21.63281 5.2461,43.96094 25.10156,53.96875c-39,9.89453 -66.32812,44.96484 -66.40234,85.19922l0,40l16,0l0,-40c0,-39.76563 32.23828,-72 72,-72c39.76563,0 72,32.23437 72,72l0,40l16,0l0,-40c-0.07031,-40.23438 -27.40234,-75.30469 -66.39844,-85.19922zm-53.60156,-42.80078c0,-17.67578 14.32813,-32 32,-32c17.67578,0 32,14.32422 32,32c0,17.67187 -14.32422,32 -32,32c-17.67187,0 -32,-14.32813 -32,-32zm0,0"/>
  <path fill="#f7f7f7" id="svg_3" d="m261.63281,354.86719c19.85547,-10.00781 30.24219,-32.33594 25.09766,-53.96875c-5.14063,-21.62891 -24.46484,-36.89844 -46.69922,-36.89844c-22.23047,0 -41.55469,15.26953 -46.69922,36.89844c-5.14062,21.63281 5.2461,43.96094 25.10156,53.96875c-39,9.89453 -66.32812,44.96484 -66.40234,85.19922l0,40l16,0l0,-40c0,-39.76563 32.23828,-72 72,-72c39.76563,0 72,32.23437 72,72l0,40l16,0l0,-40c-0.07031,-40.23438 -27.40234,-75.30469 -66.39844,-85.19922zm-53.60156,-42.80078c0,-17.67578 14.32813,-32 32,-32c17.67578,0 32,14.32422 32,32c0,17.67187 -14.32422,32 -32,32c-17.67187,0 -32,-14.32813 -32,-32zm0,0"/>
  <path fill="#f7f7f7" id="svg_4" d="m168.03125,344.06641l-24,0c-52.99219,-0.0586 -95.94141,-43.00391 -96,-96l0,-24l-16,0l0,24c0.06641,61.82812 50.17188,111.93359 112,112l24,0l0,-16zm0,0"/>
  <path fill="#f7f7f7" id="svg_5" d="m432.03125,256.06641c-0.05469,48.57812 -39.42187,87.9414 -88,88l-32,0l0,16l32,0c57.41016,-0.06641 103.93359,-46.58985 104,-104l0,-32l-16,0l0,32zm0,0"/>
 </g>
</svg>