<svg width="502" height="502" xmlns="http://www.w3.org/2000/svg">

 <g>
  <title>background</title>
  <rect fill="none" id="canvas_background" height="602" width="802" y="-1" x="-1"/>
 </g>
 <g>
  <title>Layer 1</title>
  <g id="svg_1">
   <g id="svg_2">
    <path fill="#f7f7f7" id="svg_3" d="m492,0l-418.061,0c-5.523,0 -10,4.478 -10,10l0,53.974c-35.381,0.746 -63.939,29.739 -63.939,65.297l0,307.397c0,36.024 29.308,65.332 65.332,65.332l307.398,0c35.557,0 64.549,-28.557 65.296,-63.938l53.974,0c5.523,0 10,-4.478 10,-10l0,-418.062c0,-5.522 -4.477,-10 -10,-10zm-73.939,436.668c0,24.996 -20.335,45.332 -45.332,45.332l-307.397,0c-24.997,0 -45.332,-20.336 -45.332,-45.332l0,-307.397c0,-24.996 20.335,-45.332 45.332,-45.332l307.398,0c24.996,0 45.332,20.336 45.332,45.332l0,307.397l-0.001,0zm63.939,-18.606l-43.939,0l0,-288.791c0,-36.024 -29.308,-65.332 -65.332,-65.332l-288.79,0l0,-43.939l398.061,0l0,398.062z"/>
    <path fill="#f7f7f7" id="svg_4" d="m60.413,122.959c-5.523,0 -10,4.478 -10,10l0,221.327c0,5.522 4.477,10 10,10s10,-4.478 10,-10l0,-221.327c0,-5.522 -4.477,-10 -10,-10z"/>
    <path fill="#f7f7f7" id="svg_5" d="m60.413,387.321c-5.523,0 -10,4.478 -10,10l0,35.658c0,5.522 4.477,10 10,10s10,-4.478 10,-10l0,-35.658c0,-5.522 -4.477,-10 -10,-10z"/>
   </g>
  </g>
  <g id="svg_6"/>
  <g id="svg_7"/>
  <g id="svg_8"/>
  <g id="svg_9"/>
  <g id="svg_10"/>
  <g id="svg_11"/>
  <g id="svg_12"/>
  <g id="svg_13"/>
  <g id="svg_14"/>
  <g id="svg_15"/>
  <g id="svg_16"/>
  <g id="svg_17"/>
  <g id="svg_18"/>
  <g id="svg_19"/>
  <g id="svg_20"/>
 </g>
</svg>