<svg width="512.009" height="512.009" xmlns="http://www.w3.org/2000/svg">

 <g>
  <title>background</title>
  <rect fill="none" id="canvas_background" height="602" width="802" y="-1" x="-1"/>
 </g>
 <g>
  <title>Layer 1</title>
  <g id="svg_1">
   <g id="svg_2">
    <path fill="#f7f7f7" stroke="#f7f7f7" id="svg_3" d="m158.897,114.763c-78.963,0 -158.897,18.194 -158.897,52.966s79.934,52.966 158.897,52.966s158.897,-18.194 158.897,-52.966s-79.935,-52.966 -158.897,-52.966zm0,88.276c-92.734,0 -141.241,-22.987 -141.241,-35.31s48.508,-35.31 141.241,-35.31s141.241,22.987 141.241,35.31s-48.508,35.31 -141.241,35.31z"/>
   </g>
  </g>
  <g id="svg_4">
   <g id="svg_5">
    <path fill="#f7f7f7" stroke="#f7f7f7" id="svg_6" d="m308.966,158.901c-4.873,0 -8.828,3.946 -8.828,8.828c0,12.323 -48.508,35.31 -141.241,35.31s-141.241,-22.987 -141.241,-35.31c0,-4.882 -3.955,-8.828 -8.828,-8.828c-4.873,0 -8.828,3.946 -8.828,8.828l0,70.621c0,34.772 79.934,52.966 158.897,52.966s158.897,-18.194 158.897,-52.966l0,-70.621c-0.001,-4.882 -3.956,-8.828 -8.828,-8.828zm-8.828,79.448c0,12.323 -48.508,35.31 -141.241,35.31s-141.241,-22.987 -141.241,-35.31l0,-44.941c55.79,35.999 226.684,35.999 282.483,0l0,44.941l-0.001,0z"/>
   </g>
  </g>
  <g id="svg_7">
   <g id="svg_8">
    <path fill="#f7f7f7" stroke="#f7f7f7" id="svg_9" d="m308.966,229.522c-4.873,0 -8.828,3.946 -8.828,8.828c0,12.323 -48.508,35.31 -141.241,35.31s-141.241,-22.987 -141.241,-35.31c0,-4.882 -3.955,-8.828 -8.828,-8.828c-4.873,0 -8.828,3.946 -8.828,8.828l0,70.621c0,34.772 79.934,52.966 158.897,52.966s158.897,-18.194 158.897,-52.966l0,-70.621c-0.001,-4.882 -3.956,-8.828 -8.828,-8.828zm-8.828,79.448c0,12.323 -48.508,35.31 -141.241,35.31s-141.242,-22.987 -141.242,-35.31l0,-44.941c55.79,35.999 226.684,35.999 282.483,0l0,44.941z"/>
   </g>
  </g>
  <g id="svg_10">
   <g id="svg_11">
    <path fill="#f7f7f7" stroke="#f7f7f7" id="svg_12" d="m308.966,300.142c-4.873,0 -8.828,3.946 -8.828,8.828c0,12.323 -48.508,35.31 -141.241,35.31s-141.242,-22.987 -141.242,-35.31c0,-4.882 -3.955,-8.828 -8.828,-8.828c-4.873,0 -8.828,3.946 -8.828,8.828l0,70.621c0,34.772 79.934,52.966 158.897,52.966s158.897,-18.194 158.897,-52.966l0,-70.621c0,-4.882 -3.955,-8.828 -8.827,-8.828zm-8.828,79.449c0,12.323 -48.508,35.31 -141.241,35.31s-141.241,-22.987 -141.241,-35.31l0,-44.941c55.79,35.999 226.684,35.999 282.483,0l0,44.941l-0.001,0z"/>
   </g>
  </g>
  <g id="svg_13">
   <g id="svg_14">
    <path fill="#f7f7f7" stroke="#f7f7f7" id="svg_15" d="m308.966,370.763c-4.873,0 -8.828,3.946 -8.828,8.828c0,12.323 -48.508,35.31 -141.241,35.31s-141.241,-22.987 -141.241,-35.31c0,-4.882 -3.955,-8.828 -8.828,-8.828c-4.873,0 -8.828,3.946 -8.828,8.828l0,70.621c0,34.772 79.934,52.966 158.897,52.966s158.897,-18.194 158.897,-52.966l0,-70.621c-0.001,-4.882 -3.956,-8.828 -8.828,-8.828zm-8.828,79.448c0,12.323 -48.508,35.31 -141.241,35.31s-141.241,-22.987 -141.241,-35.31l0,-44.941c55.79,35.999 226.684,35.999 282.483,0l0,44.941l-0.001,0z"/>
   </g>
  </g>
  <g id="svg_16">
   <g id="svg_17">
    <path fill="#f7f7f7" stroke="#f7f7f7" id="svg_18" d="m353.103,8.832c-78.963,0 -158.897,18.194 -158.897,52.966s79.934,52.966 158.897,52.966s158.897,-18.195 158.897,-52.967s-79.934,-52.965 -158.897,-52.965zm0,88.276c-92.734,0 -141.241,-22.987 -141.241,-35.31s48.508,-35.31 141.241,-35.31s141.241,22.987 141.241,35.31s-48.507,35.31 -141.241,35.31z"/>
   </g>
  </g>
  <g id="svg_19">
   <g id="svg_20">
    <path fill="#f7f7f7" stroke="#f7f7f7" id="svg_21" d="m503.172,52.97c-4.873,0 -8.828,3.946 -8.828,8.828c0,12.323 -48.508,35.31 -141.241,35.31s-141.241,-22.987 -141.241,-35.31c0,-4.882 -3.955,-8.828 -8.828,-8.828c-4.873,0 -8.828,3.946 -8.828,8.828l0,63.744c0,4.564 3.487,8.377 8.033,8.792c66.789,6.029 97.898,23.49 97.898,33.395c0,0.318 -0.124,1.086 -0.918,2.631c-1.351,2.595 -1.315,5.703 0.088,8.28c1.404,2.578 3.999,4.29 6.921,4.564c15.21,1.448 30.976,2.18 46.875,2.18c78.963,0 158.897,-18.194 158.897,-52.966l0,-70.621c0,-4.881 -3.955,-8.827 -8.828,-8.827zm-8.827,79.448c0,12.323 -48.508,35.31 -141.241,35.31c-11.926,0 -23.773,-0.424 -35.346,-1.271c-1.554,-27.745 -54.051,-43.229 -105.896,-48.914l0,-30.066c55.79,35.999 226.692,35.999 282.483,0l0,44.941z"/>
   </g>
  </g>
  <g id="svg_22">
   <g id="svg_23">
    <path fill="#f7f7f7" stroke="#f7f7f7" id="svg_24" d="m503.181,194.202c-4.873,0 -8.828,3.946 -8.828,8.828c0,12.323 -48.508,35.31 -141.241,35.31c-14.389,0 -28.972,-0.671 -43.343,-1.969c-2.472,-0.238 -4.917,0.609 -6.753,2.278c-1.836,1.668 -2.878,4.034 -2.878,6.515l0,63.797c0,0.318 -0.124,1.086 -0.909,2.622c-1.342,2.604 -1.306,5.703 0.097,8.28c1.404,2.569 3.99,4.281 6.912,4.555c15.395,1.465 31.153,2.207 46.866,2.207c78.963,0 158.897,-18.194 158.905,-52.974l0,-70.621c0,-4.882 -3.955,-8.828 -8.828,-8.828zm-8.836,79.458c0,12.323 -48.508,35.31 -141.241,35.31c-11.802,0 -23.64,-0.424 -35.31,-1.289l0,-52.939c11.758,0.839 23.596,1.262 35.31,1.262c56.426,0 113.346,-9.287 141.241,-27.286l0,44.942z"/>
   </g>
  </g>
  <g id="svg_25">
   <g id="svg_26">
    <path fill="#f7f7f7" stroke="#f7f7f7" id="svg_27" d="m503.181,264.823c-4.873,0 -8.828,3.946 -8.828,8.828c0,12.323 -48.508,35.31 -141.241,35.31c-14.389,0 -28.972,-0.671 -43.343,-1.969c-2.472,-0.247 -4.917,0.609 -6.753,2.278c-1.836,1.668 -2.878,4.034 -2.878,6.515l0,63.797c0,0.318 -0.124,1.086 -0.909,2.622c-1.342,2.604 -1.306,5.703 0.097,8.28c1.404,2.569 3.99,4.281 6.912,4.555c15.395,1.465 31.153,2.207 46.866,2.207c78.963,0 158.897,-18.194 158.905,-52.974l0,-70.621c0,-4.882 -3.955,-8.828 -8.828,-8.828zm-8.836,79.457c0,12.323 -48.508,35.31 -141.241,35.31c-11.802,0 -23.64,-0.424 -35.31,-1.289l0,-52.939c11.758,0.839 23.596,1.262 35.31,1.262c56.426,0 113.346,-9.287 141.241,-27.286l0,44.942z"/>
   </g>
  </g>
  <g id="svg_28">
   <g id="svg_29">
    <path fill="#f7f7f7" stroke="#f7f7f7" id="svg_30" d="m503.181,123.582c-4.873,0 -8.828,3.946 -8.828,8.828c0,12.323 -48.508,35.31 -141.241,35.31c-14.389,0 -28.972,-0.671 -43.343,-1.969c-2.472,-0.23 -4.917,0.609 -6.753,2.278c-1.836,1.668 -2.878,4.034 -2.878,6.515l0,63.797c0,0.318 -0.124,1.086 -0.909,2.622c-1.342,2.604 -1.306,5.703 0.097,8.28c1.404,2.569 3.99,4.281 6.912,4.555c15.395,1.465 31.153,2.207 46.866,2.207c78.963,0 158.897,-18.194 158.905,-52.974l0,-70.621c0,-4.882 -3.955,-8.828 -8.828,-8.828zm-8.836,79.457c0,12.323 -48.508,35.31 -141.241,35.31c-11.802,0 -23.64,-0.424 -35.31,-1.289l0,-52.939c11.758,0.839 23.596,1.262 35.31,1.262c56.426,0 113.346,-9.287 141.241,-27.286l0,44.942z"/>
   </g>
  </g>
  <g id="svg_31"/>
  <g id="svg_32"/>
  <g id="svg_33"/>
  <g id="svg_34"/>
  <g id="svg_35"/>
  <g id="svg_36"/>
  <g id="svg_37"/>
  <g id="svg_38"/>
  <g id="svg_39"/>
  <g id="svg_40"/>
  <g id="svg_41"/>
  <g id="svg_42"/>
  <g id="svg_43"/>
  <g id="svg_44"/>
  <g id="svg_45"/>
 </g>
</svg>