<svg width="512.001" height="512" xmlns="http://www.w3.org/2000/svg">

 <g>
  <title>background</title>
  <rect fill="none" id="canvas_background" height="602" width="802" y="-1" x="-1"/>
 </g>
 <g>
  <title>Layer 1</title>
  <path fill="#f7f7f7" id="svg_1" d="m131.21875,216.83594c2.63281,0 5.21094,-1.07031 7.07031,-2.92969c1.85938,-1.86328 2.92969,-4.44141 2.92969,-7.07031c0,-2.63281 -1.07031,-5.21094 -2.92969,-7.07031c-1.85937,-1.85938 -4.4375,-2.92969 -7.07031,-2.92969c-2.64062,0 -5.20703,1.07031 -7.07031,2.92969c-1.85938,1.85937 -2.92969,4.4375 -2.92969,7.07031c0,2.6289 1.07031,5.20703 2.92969,7.07031c1.86328,1.85938 4.4414,2.92969 7.07031,2.92969zm0,0"/>
  <path fill="#f7f7f7" id="svg_2" d="m274.46875,203.59375c-1.86719,-1.85937 -4.4375,-2.92969 -7.07812,-2.92969c-2.62891,0 -5.21094,1.07032 -7.07032,2.92969c-1.85937,1.85938 -2.92968,4.44141 -2.92968,7.07031c0,2.62891 1.07031,5.21094 2.92968,7.07032c1.85938,1.85937 4.44141,2.92968 7.07032,2.92968c2.64062,0 5.21093,-1.07031 7.07812,-2.92968c1.85938,-1.85938 2.92188,-4.42969 2.92188,-7.07032c0,-2.6289 -1.0625,-5.21093 -2.92188,-7.07031zm0,0"/>
  <path fill="#f7f7f7" id="svg_3" d="m302.39844,185.66406c2.63281,0 5.21094,-1.07031 7.07031,-2.92968s2.92188,-4.44141 2.92188,-7.07032c0,-2.6289 -1.0625,-5.21093 -2.92188,-7.07031s-4.4375,-2.92969 -7.07031,-2.92969c-2.63672,0 -5.21875,1.07032 -7.07813,2.92969c-1.85937,1.85938 -2.92968,4.44141 -2.92968,7.07031c0,2.62891 1.07031,5.21094 2.92968,7.07032c1.85938,1.85937 4.44141,2.92968 7.07813,2.92968zm0,0"/>
  <path fill="#f7f7f7" id="svg_4" d="m482,245.99609l-27.90234,0l49.11718,-49.11718c5.66407,-5.66797 8.78516,-13.20313 8.78516,-21.21485c0,-8.01172 -3.12109,-15.54687 -8.78516,-21.21093l-44.55078,-44.55079c-3.90234,-3.90234 -10.23437,-3.90234 -14.14062,0c-5.66407,5.66797 -13.19922,8.78907 -21.21094,8.78907c-8.01563,0 -15.54688,-3.1211 -21.21484,-8.78907c-5.66797,-5.66406 -8.78516,-13.19921 -8.78516,-21.21093c0,-8.01563 3.12109,-15.54688 8.78516,-21.21485c1.875,-1.875 2.92968,-4.41797 2.92968,-7.07031s-1.05468,-5.19531 -2.92968,-7.07031l-44.54688,-44.54688c-5.66797,-5.66797 -13.19922,-8.78906 -21.21484,-8.78906c-8.01172,0 -15.54688,3.12109 -21.21094,8.78906l-165.16406,165.16016c-3.90625,3.90234 -3.90625,10.23437 0,14.14062s10.23828,3.90625 14.14453,0l165.16015,-165.16015c1.89063,-1.89063 4.39844,-2.92969 7.07032,-2.92969c2.67187,0 5.18359,1.03906 7.07031,2.92969l38.18359,38.17969c-5.38672,8.10937 -8.27734,17.625 -8.27734,27.58203c0,13.35547 5.19922,25.91015 14.64453,35.35547c9.44531,9.4414 22,14.64453 35.35547,14.64453c9.95703,0 19.46875,-2.89063 27.58203,-8.27735l38.17969,38.17969c3.89844,3.89844 3.89844,10.24219 0,14.14063l-63.26172,63.26171l-43.83984,0l32.85547,-32.85546c3.90234,-3.90625 3.90234,-10.23829 0,-14.14063l-101.82422,-101.82422c-3.90625,-3.90625 -10.23828,-3.90625 -14.14453,0l-148.82032,148.82031l-120.03906,0c-16.54297,0 -30,13.45704 -30,30l0,63c0,5.51953 4.47656,10 10,10c16.54297,0 30,13.45704 30,30c0,16.53907 -13.45703,30 -30,30c-5.52344,0 -10,4.47657 -10,10l0,63c0,16.53907 13.45703,30 30,30l452,0c16.54297,0 30,-13.46093 30,-30l0,-63c0,-5.52343 -4.47656,-10 -10,-10c-16.54297,0 -30,-13.46093 -30,-30c0,-16.54296 13.45703,-30 30,-30c5.52344,0 10,-4.48047 10,-10l0,-63c0,-16.54296 -13.45703,-30 -30,-30zm-176.07031,-127.60937l87.68359,87.68359l-39.92578,39.92578l-39.59766,0l29.31641,-29.32031c3.90625,-3.90234 3.90625,-10.23437 0,-14.14062c-3.90234,-3.90625 -10.23437,-3.90625 -14.14062,0l-43.46094,43.45703l-107.48047,0l127.60547,-127.60547zm186.07031,211.61328c-22.79297,4.64453 -40,24.84766 -40,48.99609c0,24.14454 17.20703,44.34766 40,48.9961l0,54.0039c0,5.51172 -4.48437,10 -10,10l-452,0c-5.51562,0 -10,-4.48828 -10,-10l0,-54.0039c22.79297,-4.64844 40,-24.85157 40,-48.9961c0,-24.14843 -17.20703,-44.34765 -40,-48.99609l0,-54.00391c0,-5.51562 4.48438,-10 10,-10l452,0c5.51563,0 10,4.48438 10,10l0,54.00391zm0,0"/>
  <path fill="#f7f7f7" id="svg_5" d="m213.57031,362.06641c1.85938,-1.86328 2.92969,-4.44141 2.92969,-7.07032c0,-2.63281 -1.07031,-5.21093 -2.92969,-7.07031c-1.85937,-1.85937 -4.4414,-2.92969 -7.07031,-2.92969s-5.21094,1.07032 -7.07031,2.92969c-1.85938,1.85938 -2.92969,4.4375 -2.92969,7.07031c0,2.62891 1.07031,5.20703 2.92969,7.07032c1.85937,1.85937 4.4414,2.92968 7.07031,2.92968s5.21094,-1.07031 7.07031,-2.92968zm0,0"/>
  <path fill="#f7f7f7" id="svg_6" d="m312.57031,362.06641c1.85938,-1.86328 2.92969,-4.44141 2.92969,-7.07032c0,-2.63281 -1.07031,-5.21093 -2.92969,-7.07031c-1.85937,-1.85937 -4.4414,-2.92969 -7.07031,-2.92969s-5.21094,1.07032 -7.07031,2.92969c-1.85938,1.85938 -2.92969,4.4375 -2.92969,7.07031c0,2.62891 1.07031,5.20703 2.92969,7.07032c1.85937,1.85937 4.4414,2.92968 7.07031,2.92968s5.21094,-1.07031 7.07031,-2.92968zm0,0"/>
  <path fill="#f7f7f7" id="svg_7" d="m263.07031,362.06641c1.85938,-1.86328 2.92969,-4.44141 2.92969,-7.07032c0,-2.63281 -1.07031,-5.21093 -2.92969,-7.07031c-1.85937,-1.85937 -4.4414,-2.92969 -7.07031,-2.92969s-5.21094,1.07032 -7.07031,2.92969c-1.85938,1.85938 -2.92969,4.4375 -2.92969,7.07031c0,2.62891 1.07031,5.20703 2.92969,7.07032c1.85937,1.85937 4.4414,2.92968 7.07031,2.92968s5.21094,-1.07031 7.07031,-2.92968zm0,0"/>
  <path fill="#f7f7f7" id="svg_8" d="m157,364.99609c2.62891,0 5.21094,-1.07031 7.07031,-2.92968c1.85938,-1.86328 2.92969,-4.44141 2.92969,-7.07032c0,-2.63281 -1.07031,-5.21093 -2.92969,-7.07031c-1.85937,-1.85937 -4.4414,-2.92969 -7.07031,-2.92969s-5.21094,1.07032 -7.07031,2.92969c-1.85938,1.85938 -2.92969,4.4375 -2.92969,7.07031c0,2.62891 1.07031,5.20704 2.92969,7.07032c1.85937,1.85937 4.4414,2.92968 7.07031,2.92968zm0,0"/>
  <path fill="#f7f7f7" id="svg_9" d="m362.07031,362.06641c1.85938,-1.86328 2.92969,-4.44141 2.92969,-7.07032c0,-2.63281 -1.07031,-5.21093 -2.92969,-7.07031c-1.85937,-1.85937 -4.4414,-2.92969 -7.07031,-2.92969s-5.21094,1.07032 -7.07031,2.92969c-1.85938,1.85938 -2.92969,4.4375 -2.92969,7.07031c0,2.62891 1.07031,5.20703 2.92969,7.07032c1.85937,1.85937 4.4414,2.92968 7.07031,2.92968s5.21094,-1.07031 7.07031,-2.92968zm0,0"/>
  <path fill="#f7f7f7" id="svg_10" d="m157,412.99609l198,0c5.52344,0 10,-4.48046 10,-10c0,-5.52343 -4.47656,-10 -10,-10l-198,0c-5.52344,0 -10,4.47657 -10,10c0,5.51954 4.47656,10 10,10zm0,0"/>
  <path fill="#f7f7f7" id="svg_11" d="m193.32031,440.99609c-2.6289,0 -5.21093,1.07032 -7.07031,2.92969s-2.92969,4.4375 -2.92969,7.07031c0,2.62891 1.07032,5.20704 2.92969,7.07032c1.85938,1.85937 4.44141,2.92968 7.07031,2.92968c2.64063,0 5.21094,-1.07031 7.07032,-2.92968c1.87109,-1.86328 2.92968,-4.44141 2.92968,-7.07032c0,-2.63281 -1.05859,-5.21093 -2.92968,-7.07031c-1.85938,-1.85937 -4.42969,-2.92969 -7.07032,-2.92969zm0,0"/>
  <path fill="#f7f7f7" id="svg_12" d="m408,296.99609l-304,0c-5.52344,0 -10,4.47657 -10,10l0,144c0,5.51954 4.47656,10 10,10l41.65625,0c5.52344,0 10,-4.48046 10,-10c0,-5.52343 -4.47656,-10 -10,-10l-31.65625,0l0,-124l284,0l0,124l-162.34375,0c-5.52344,0 -10,4.47657 -10,10c0,5.51954 4.47656,10 10,10l172.34375,0c5.52344,0 10,-4.48046 10,-10l0,-144c0,-5.52343 -4.47656,-10 -10,-10zm0,0"/>
 </g>
</svg>