<svg width="477" height="477.96064" xmlns="http://www.w3.org/2000/svg">

 <g>
  <title>background</title>
  <rect fill="none" id="canvas_background" height="602" width="802" y="-1" x="-1"/>
 </g>
 <g>
  <title>Layer 1</title>
  <path fill="#f7f7f7" id="svg_1" d="m335.76953,235.91406l0,-127.58984c0,-2.78125 -1.15625,-5.43359 -3.1914,-7.32422l-105.84375,-98.32422c-1.84766,-1.71875 -4.28125,-2.67578 -6.80469,-2.67578l-175.44922,0c-24.28906,0.02734 -43.97266,19.71094 -44,44l0,335.79297c0.02734,24.28906 19.71094,43.97266 44,44l155.38281,0c30.57813,45.125 87.14063,64.83594 139.14063,48.48828s87.10937,-64.88281 86.36328,-119.38672c-0.7461,-54.5039 -37.16797,-102.0625 -89.59766,-116.98047zm-105.09766,-202.28515l70.97657,65.9375l-46.97657,0c-13.24609,-0.01563 -23.98437,-10.75391 -24,-24l0,-41.9375zm-186.1914,370.16406c-13.25,-0.01563 -23.98438,-10.75391 -24,-24l0,-335.79297c0.01562,-13.25 10.75,-23.98438 24,-24l166.1914,0l0,55.56641c0.02735,24.28906 19.71094,43.97265 44,44l61.10157,0l0,112.41796c-34.90625,-3.92578 -69.83203,7.21094 -96.02344,30.6211c-26.19141,23.41016 -41.16016,56.875 -41.15625,92c-0.01563,16.92578 3.46875,33.67187 10.23437,49.1875l-144.34765,0zm257.5039,54.20703c-57.10156,0 -103.39453,-46.29297 -103.39453,-103.39453c0,-57.10156 46.29297,-103.39453 103.39453,-103.39453c57.10547,0 103.39454,46.29297 103.39454,103.39453c-0.0625,57.07812 -46.31641,103.32812 -103.39454,103.39453zm0,0"/>
  <path fill="#f7f7f7" id="svg_2" d="m354.48828,342.94531l-40.84375,0l0,-40.84375c0,-5.52343 -4.47656,-10 -10,-10c-5.52344,0 -10,4.47657 -10,10l0,40.84375l-40.84375,0c-5.52344,0 -10,4.47657 -10,10c0,5.52344 4.47656,10 10,10l40.84375,0l0,46.375c0,5.52344 4.47656,10 10,10c5.52344,0 10,-4.47656 10,-10l0,-46.375l40.84375,0c5.52344,0 10,-4.47656 10,-10c0,-5.51953 -4.47656,-10 -10,-10zm0,0"/>
 </g>
</svg>